<?xml version="1.0" standalone="no"?>
<!DOCTYPE svg PUBLIC "-//W3C//DTD SVG 20010904//EN"
 "http://www.w3.org/TR/2001/REC-SVG-20010904/DTD/svg10.dtd">
<svg version="1.0" xmlns="http://www.w3.org/2000/svg"
 width="1041.000000pt" height="565.000000pt" viewBox="0 0 1041.000000 565.000000"
 preserveAspectRatio="xMidYMid meet">
<metadata>
Created by potrace 1.16, written by Peter Selinger 2001-2019
</metadata>
<g transform="translate(0.000000,565.000000) scale(0.100000,-0.100000)"
fill="#000000" stroke="none">
<path d="M60 3811 l-55 -6 -3 -935 c-2 -1053 -7 -985 73 -1025 36 -18 64 -20
282 -23 342 -5 388 8 419 114 8 30 18 54 22 54 4 0 38 -68 77 -152 38 -83 80
-164 92 -179 42 -50 180 -62 256 -22 23 12 44 46 99 161 39 81 74 157 79 170
13 34 24 27 38 -27 21 -82 66 -111 185 -118 44 -2 86 -6 93 -8 9 -3 2 -33 -23
-102 -56 -155 -50 -293 14 -322 42 -20 113 -24 175 -11 51 10 85 33 334 217
303 224 333 249 369 306 l24 37 213 0 c116 0 217 -4 222 -8 6 -4 22 -22 34
-41 41 -58 70 -64 323 -71 l227 -5 213 -212 c213 -211 213 -211 272 -223 72
-15 156 -5 190 21 49 39 50 44 53 850 l4 756 74 6 c87 8 101 4 120 -33 36 -69
231 -72 306 -4 16 14 17 -19 21 -498 5 -449 7 -520 22 -568 16 -51 35 -72 249
-287 l232 -231 59 -12 c73 -15 156 -5 190 21 47 37 49 59 54 634 l4 540 32
-95 c99 -297 316 -515 606 -608 51 -17 220 -52 248 -52 3 0 103 -97 222 -215
119 -118 219 -215 221 -215 3 0 31 -5 63 -11 72 -13 154 2 185 34 29 32 41
108 41 268 l0 139 548 2 c301 0 700 2 887 2 397 1 401 2 437 83 17 38 22 74
26 185 3 76 8 138 11 138 3 0 222 -182 486 -405 264 -223 492 -413 508 -421
38 -20 132 -37 168 -29 l29 7 0 191 0 191 -195 331 c-107 182 -195 341 -195
354 0 13 15 48 34 79 79 130 111 301 103 561 -7 274 -53 406 -182 537 -112
113 -247 165 -475 184 -154 13 -2747 12 -2911 -1 -194 -14 -341 -61 -481 -150
-26 -17 -51 -28 -57 -25 -5 3 -12 23 -16 43 -17 94 -53 119 -183 134 -51 5
-590 8 -1297 6 l-1210 -2 -57 -22 -58 -21 -57 20 c-51 18 -88 21 -298 25 -256
5 -411 -6 -452 -32 -37 -25 -47 -61 -48 -185 l-1 -115 -63 -165 c-36 -91 -67
-169 -71 -173 -4 -5 -10 110 -13 255 -5 276 -12 324 -52 364 -43 43 -89 49
-405 49 -326 0 -380 -7 -428 -54 -17 -17 -61 -108 -116 -237 -96 -226 -114
-261 -126 -248 -4 5 -52 111 -105 237 -103 242 -119 265 -193 288 -41 13 -648
21 -742 10z m870 -485 c96 -228 178 -411 181 -407 3 3 83 189 179 414 l173
407 304 0 303 0 1 -707 c0 -434 4 -700 9 -688 5 11 120 310 256 665 l246 645
-41 36 c-23 20 -41 40 -41 43 0 3 136 5 301 4 l301 -3 23 -65 c13 -36 126
-351 250 -700 125 -349 249 -697 275 -772 l49 -138 -244 0 -243 0 -19 58 -20
57 -282 3 c-264 2 -283 3 -276 20 9 22 131 341 157 410 l19 52 111 0 c84 0
109 3 106 13 -3 6 -38 110 -78 230 -39 120 -73 217 -75 215 -1 -2 -95 -241
-209 -533 l-208 -530 -320 -238 c-176 -131 -322 -236 -324 -234 -3 2 36 109
86 237 49 128 90 234 90 236 0 2 -88 4 -195 4 l-195 0 -2 382 -3 383 -229
-498 c-126 -274 -232 -500 -236 -502 -4 -3 -112 224 -241 502 l-234 507 -3
-387 -2 -387 -240 0 -240 0 0 773 0 773 -60 59 c-33 33 -60 63 -60 67 0 4 163
8 363 8 l362 -1 175 -413z m3630 169 l0 -245 -180 0 -180 0 0 -836 c0 -460 -3
-834 -7 -832 -5 2 -115 111 -245 243 l-238 241 0 592 0 592 -118 0 -118 0 -54
-55 c-30 -30 -58 -55 -62 -55 -4 0 -8 135 -8 300 l0 300 605 0 605 0 0 -245z
m1330 0 l0 -245 -180 0 -180 0 0 -836 c0 -460 -3 -834 -7 -832 -5 2 -115 111
-245 243 l-238 241 0 592 0 592 -117 0 -117 0 -63 -62 -63 -62 0 307 0 307
605 0 605 0 0 -245z m1260 1 l0 -245 -287 -3 -288 -3 -56 -28 c-63 -31 -135
-102 -171 -168 -20 -38 -23 -58 -23 -149 0 -92 3 -111 24 -150 37 -70 68 -105
124 -144 45 -31 144 -66 184 -66 10 0 13 51 13 240 l0 240 240 0 240 0 0 -722
0 -723 -243 243 -242 242 -56 0 c-71 0 -229 40 -300 75 -232 118 -387 308
-457 560 -26 94 -23 327 6 428 66 230 229 425 447 534 139 70 215 81 563 82
l282 1 0 -244z m1250 -1 l0 -245 -300 0 -300 0 0 -115 0 -115 363 -1 362 0
-362 -182 -363 -182 0 -57 0 -58 300 0 300 0 0 -240 0 -240 -545 0 -545 0 0
778 0 778 -55 54 c-30 30 -55 58 -55 62 0 4 270 8 600 8 l600 0 0 -245z m1225
222 c146 -43 248 -120 308 -235 66 -124 90 -301 68 -492 -24 -202 -83 -324
-179 -372 l-50 -25 20 -34 c12 -19 140 -236 286 -484 146 -247 272 -460 280
-473 8 -12 10 -22 6 -22 -5 0 -95 73 -200 163 -104 89 -373 316 -597 505
l-407 343 0 214 0 215 134 0 c73 0 147 5 165 11 40 14 61 54 61 114 0 38 -5
52 -29 76 l-29 29 -206 0 -206 0 0 -595 0 -595 -245 0 -245 0 0 778 0 778 -55
54 c-30 30 -55 58 -55 63 0 4 251 7 558 5 492 -3 564 -6 617 -21z"/>
</g>
</svg>
